<?xml version="1.0" encoding="UTF-8"?>
<svg width="28px" height="16px" viewBox="0 0 28 16" version="1.1" xmlns="http://www.w3.org/2000/svg" xmlns:xlink="http://www.w3.org/1999/xlink">
    <!-- Generator: Sketch 3.7 (28169) - http://www.bohemiancoding.com/sketch -->
    <title>Shape</title>
    <desc>Created with Sketch.</desc>
    <defs></defs>
    <g id="Page-1" stroke="none" stroke-width="1" fill="none" fill-rule="evenodd">
        <g id="Phone" transform="translate(-59.000000, -15.000000)" stroke="#FFFFFF">
            <g id="Intro" transform="translate(0.000000, -5.000000)">
                <g id="Group-4" transform="translate(0.000000, 5.000000)">
                    <g id="Group" transform="translate(60.000000, 16.000000)">
                        <path d="M6.80952381,0 C3.0487275,0 0,3.13400659 0,7 C0,10.8659934 3.0487275,14 6.80952381,14 C9.45533055,14 11.7469545,12.4477427 12.874256,10.1818182 L14.8571429,10.1818182 L16.4047619,8.27272727 L17.952381,10.1818182 L19.1904762,10.1818182 L20.7380952,8.27272727 L22.2857143,10.1818182 L23.5238095,10.1818182 L26,7 L23.5238095,3.81818182 L12.874256,3.81818182 C11.7469545,1.55225732 9.45533055,0 6.80952381,0 L6.80952381,0 Z M6.80952381,4.13636364 C8.34803295,4.13636364 9.5952381,5.41845564 9.5952381,7 C9.5952381,8.58154436 8.34803295,9.86363636 6.80952381,9.86363636 C5.27101467,9.86363636 4.02380952,8.58154436 4.02380952,7 C4.02380952,5.41845564 5.27101467,4.13636364 6.80952381,4.13636364 L6.80952381,4.13636364 Z" id="Shape"></path>
                    </g>
                </g>
            </g>
        </g>
    </g>
</svg>