<?xml version="1.0" encoding="UTF-8"?>
<svg width="177px" height="43px" viewBox="0 0 177 43" version="1.1" xmlns="http://www.w3.org/2000/svg" xmlns:xlink="http://www.w3.org/1999/xlink">
    <!-- Generator: Sketch 3.7 (28169) - http://www.bohemiancoding.com/sketch -->
    <title>Logo</title>
    <desc>Created with Sketch.</desc>
    <defs>
        <rect id="path-1" x="0" y="0" width="177" height="43"></rect>
        <mask id="mask-2" maskContentUnits="userSpaceOnUse" maskUnits="objectBoundingBox" x="0" y="0" width="177" height="43" fill="white">
            <use xlink:href="#path-1"></use>
        </mask>
    </defs>
    <g id="Page-1" stroke="none" stroke-width="1" fill="none" fill-rule="evenodd">
        <g id="Phone" transform="translate(-72.000000, -89.000000)">
            <g id="Intro" transform="translate(0.000000, -5.000000)">
                <g id="Logo" transform="translate(72.000000, 94.000000)">
                    <use id="Rectangle-92" stroke="#FFFFFF" mask="url(#mask-2)" stroke-width="2" xlink:href="#path-1"></use>
                    <path d="M16.064,30.904 C16.0959611,31 16.1519609,31.0799999 16.232,31.144 C16.3119999,31.2080001 16.4,31.24 16.496,31.24 L16.88,31.24 C17.0559999,31.24 17.192,31.1519999 17.288,30.976 L21.536,20.104 L21.656,20.104 L25.952,30.976 C26,31.1519999 26.1360005,31.24 26.36,31.24 L26.744,31.24 C26.84,31.24 26.9280005,31.2080001 27.008,31.144 C27.0875088,31.0799999 27.1435083,31 27.176,30.904 L31.712,14.776 C31.7280005,14.7444971 31.736,14.6884976 31.736,14.608 C31.736,14.4959995 31.6959995,14.3999995 31.616,14.32 C31.5360005,14.2400005 31.424,14.2 31.28,14.2 L29.072,14.2 C28.976,14.2 28.8879995,14.2319995 28.808,14.296 C28.7280005,14.3600005 28.6719995,14.44 28.64,14.536 L26.192,24.112 L26.096,24.112 L22.256,14.224 C22.208,14.0480005 22.0720002,13.96 21.848,13.96 L21.416,13.96 C21.2080002,13.96 21.0719998,14.0480005 21.008,14.224 L17.192,24.112 L17.096,24.112 L14.6,14.536 C14.5680001,14.44 14.5119999,14.3600005 14.432,14.296 C14.3520001,14.2319995 14.264,14.2 14.168,14.2 L11.96,14.2 C11.816,14.2 11.7039999,14.236 11.624,14.308 C11.5440001,14.38 11.504,14.4800005 11.504,14.608 C11.504,14.6879995 11.5119999,14.7440005 11.528,14.776 L16.064,30.904 Z M32.696,31 L34.784,31 C35.1199971,31 35.3519972,30.8399999 35.48,30.52 L36.656,27.928 L43.832,27.928 L45.008,30.52 C45.104,30.6959999 45.2,30.82 45.296,30.892 C45.392,30.964 45.5280005,31 45.704,31 L47.792,31 C47.936,31 48.0480005,30.964 48.128,30.892 C48.2079995,30.82 48.248,30.7199999 48.248,30.592 C48.248,30.544 48.2319995,30.472 48.2,30.376 L40.808,14.224 C40.7279998,14.0480005 40.592,13.96 40.4,13.96 L40.16,13.96 C39.9839998,13.96 39.848,14.0480005 39.752,14.224 L32.288,30.376 C32.2559994,30.472 32.2399993,30.544 32.24,30.592 C32.24,30.7040001 32.2800001,30.8000001 32.36,30.88 C32.4399999,30.9599999 32.552,31 32.696,31 L32.696,31 Z M37.832,25.264 L40.184,19.984 L40.256,19.984 L42.656,25.264 L37.832,25.264 Z M55.712,30.976 C55.808,31.1519999 55.9439998,31.24 56.12,31.24 L56.36,31.24 C56.5360002,31.24 56.672,31.1519999 56.768,30.976 L64.208,14.824 C64.2399995,14.728 64.256,14.656 64.256,14.608 C64.256,14.4959995 64.2159995,14.3999995 64.136,14.32 C64.0560005,14.2400005 63.944,14.2 63.8,14.2 L61.352,14.2 C61.1441958,14.2 61.0081953,14.2880005 60.944,14.464 L56.312,24.784 L56.192,24.784 L51.56,14.464 C51.4800001,14.2880005 51.344,14.2 51.152,14.2 L48.704,14.2 C48.56,14.2 48.4479999,14.236 48.368,14.308 C48.2880001,14.38 48.248,14.4800005 48.248,14.608 C48.248,14.656 48.2640001,14.728 48.296,14.824 L55.712,30.976 Z M66.272,30.544 C66.272,30.6719999 66.3160002,30.7799999 66.404,30.868 C66.4919998,30.9560001 66.5999998,31 66.728,31 L76.496,31 C76.6239995,31 76.7319995,30.9560001 76.82,30.868 C76.9080005,30.7799999 76.952,30.6719999 76.952,30.544 L76.952,28.576 C76.952,28.4640002 76.9080005,28.36 76.82,28.264 C76.7319995,28.168 76.6239995,28.12 76.496,28.12 L69.392,28.12 L69.392,23.92 L75.32,23.92 C75.4480002,23.92 75.5560002,23.8759998 75.644,23.788 C75.7319998,23.7000002 75.776,23.5920002 75.776,23.464 L75.776,21.472 C75.776,21.3600002 75.7319998,21.256 75.644,21.16 C75.5560002,21.064 75.4480002,21.016 75.32,21.016 L69.392,21.016 L69.392,17.08 L76.496,17.08 C76.6239995,17.08 76.7319995,17.0360005 76.82,16.948 C76.9080005,16.8599995 76.952,16.7519995 76.952,16.624 L76.952,14.656 C76.952,14.5439995 76.9080005,14.44 76.82,14.344 C76.7319995,14.248 76.6239995,14.2 76.496,14.2 L66.728,14.2 C66.5999998,14.2 66.4919998,14.2439995 66.404,14.332 C66.3160002,14.4200005 66.272,14.5280005 66.272,14.656 L66.272,30.544 Z M85.856,30.544 C85.856,30.6719999 85.9000002,30.7799999 85.988,30.868 C86.0759998,30.9560001 86.1839998,31 86.312,31 L88.544,31 C88.6719999,31 88.7799999,30.9560001 88.868,30.868 C88.9560001,30.7799999 89,30.6719999 89,30.544 L89,23.92 L96.824,23.92 L96.824,30.544 C96.824,30.6560001 96.8679995,30.76 96.956,30.856 C97.0440005,30.952 97.1520005,31 97.28,31 L99.488,31 C99.6000005,31 99.704,30.9560001 99.8,30.868 C99.896,30.7799999 99.944,30.6719999 99.944,30.544 L99.944,14.656 C99.944,14.5439995 99.9000005,14.44 99.812,14.344 C99.7239995,14.248 99.6159995,14.2 99.488,14.2 L97.28,14.2 C97.1520005,14.2 97.0440005,14.2439995 96.956,14.332 C96.8679995,14.4200005 96.824,14.5280005 96.824,14.656 L96.824,21.016 L89,21.016 L89,14.656 C89,14.5439995 88.9560001,14.44 88.868,14.344 C88.7799999,14.248 88.6719999,14.2 88.544,14.2 L86.312,14.2 C86.1839998,14.2 86.0759998,14.2439995 85.988,14.332 C85.9000002,14.4200005 85.856,14.5280005 85.856,14.656 L85.856,30.544 Z M104.192,26.968 C104.96,28.2800001 106,29.32 107.312,30.088 C108.624,30.856 110.072,31.24 111.656,31.24 C113.24,31.24 114.692,30.856 116.012,30.088 C117.332,29.32 118.376,28.2800001 119.144,26.968 C119.912,25.6559999 120.296,24.208 120.296,22.624 C120.296,21.04 119.912,19.5840002 119.144,18.256 C118.376,16.9280005 117.332,15.88 116.012,15.112 C114.692,14.344 113.24,13.96 111.656,13.96 C110.072,13.96 108.624,14.344 107.312,15.112 C106,15.88 104.96,16.9280005 104.192,18.256 C103.424,19.5840002 103.04,21.04 103.04,22.624 C103.04,24.208 103.424,25.6559999 104.192,26.968 L104.192,26.968 Z M106.16,22.624 C106.16,21.6319998 106.408,20.7079998 106.904,19.852 C107.4,18.9960002 108.068,18.3200005 108.908,17.824 C109.748,17.3279995 110.664,17.08 111.656,17.08 C112.648,17.08 113.568,17.3279995 114.416,17.824 C115.264,18.3200005 115.936,18.9960002 116.432,19.852 C116.928,20.7079998 117.176,21.6319998 117.176,22.624 C117.176,23.6160002 116.928,24.532 116.432,25.372 C115.936,26.212 115.264,26.8799999 114.416,27.376 C113.568011,27.8719972 112.64801,28.1199971 111.656,28.12 C110.136,28.12 108.84,27.58 107.768,26.5 C106.696,25.4200026 106.16,24.1280027 106.16,22.624 L106.16,22.624 Z M123.224,24.832 C123.224,26.032 123.516,27.1199999 124.1,28.096 C124.683998,29.0720005 125.483998,29.8400005 126.5,30.4 C127.516,30.9599999 128.648,31.24 129.896,31.24 C130.823991,31.24 131.703991,31.0760001 132.536,30.748 C133.368,30.4199999 134.08,29.9720001 134.672,29.404 C135.264,28.8360002 135.732,28.156 136.076,27.364 C136.42,26.572 136.592,25.7279999 136.592,24.832 L136.592,14.656 C136.592,14.5439995 136.548,14.44 136.46,14.344 C136.372,14.248 136.264,14.2 136.136,14.2 L133.856,14.2 C133.728,14.2 133.62,14.2439995 133.532,14.332 C133.444,14.4200005 133.4,14.5280005 133.4,14.656 L133.4,24.688 C133.4,25.696 133.076,26.5199999 132.428,27.16 C131.78,27.7999972 130.936,28.1199971 129.896,28.12 C128.856,28.12 128.016,27.8000001 127.376,27.16 C126.736,26.5199999 126.416,25.6880001 126.416,24.664 L126.416,14.656 C126.416,14.5439995 126.372,14.44 126.284,14.344 C126.196,14.248 126.088,14.2 125.96,14.2 L123.68,14.2 C123.568,14.2 123.464,14.2439995 123.368,14.332 C123.272,14.4200005 123.224,14.5280005 123.224,14.656 L123.224,24.832 Z M145.088,31.24 C146.72,31.24 148.048,30.7679999 149.072,29.824 C150.096,28.8800005 150.608,27.7680006 150.608,26.488 C150.608,25.8959999 150.504,25.3400001 150.296,24.82 C150.088,24.3000032 149.832,23.8640034 149.528,23.512 C149.224,23.1600002 148.832,22.816 148.352,22.48 C147.872,22.144 147.428,21.88 147.02,21.688 C146.612,21.496 146.136,21.2880002 145.592,21.064 C144.6,20.66402 143.88,20.2520203 143.432,19.828 C142.984,19.4040222 142.76,18.9200225 142.76,18.376 C142.76,17.896 142.948,17.4959995 143.324,17.176 C143.7,16.8560005 144.216,16.696 144.872,16.696 C145.271987,16.696 145.695986,16.7759995 146.144,16.936 C146.591984,17.0960005 146.919984,17.236 147.128,17.356 C147.336,17.476 147.696,17.6960005 148.208,18.016 C148.288,18.064 148.376,18.088 148.472,18.088 C148.696,18.088 148.888,17.968 149.048,17.728 L149.96,16.36 C150.024,16.2802246 150.056,16.1762251 150.056,16.048 C150.056,15.8240005 149.976,15.664 149.816,15.568 C149.640042,15.4400005 149.428042,15.304 149.18,15.16 C148.932,15.016 148.596,14.8439995 148.172,14.644 C147.748,14.4441265 147.26,14.280127 146.708,14.152 C146.156,14.0240005 145.592,13.96 145.016,13.96 C144.104,13.96 143.288,14.0960005 142.568,14.368 C141.848,14.6399995 141.28,15.0080005 140.864,15.472 C140.448,15.9359995 140.136,16.4279995 139.928,16.948 C139.72,17.4680005 139.616,18.0080005 139.616,18.568 C139.616,19.1119998 139.704,19.624 139.88,20.104 C140.056,20.584 140.28,21.0000002 140.552,21.352 C140.824,21.7039998 141.164,22.036 141.572,22.348 C141.98,22.66 142.384,22.924 142.784,23.14 C143.184,23.356 143.632,23.56 144.128,23.752 C145.168,24.1680002 145.936,24.604 146.432,25.06 C146.928,25.516 147.176,26.0399999 147.176,26.632 C147.176,27.1439999 146.968,27.58 146.552,27.94 C146.136,28.3 145.616,28.48 144.992,28.48 C144.512,28.48 144.036,28.3999998 143.564,28.24 C143.092,28.0800028 142.712,27.9120028 142.424,27.736 C142.136,27.5600067 141.784,27.3120068 141.368,26.992 C141.272,26.9120001 141.16,26.872 141.032,26.872 C140.84,26.872 140.68,26.968 140.552,27.16 L139.688,28.648 C139.608,28.8079998 139.568,28.9279998 139.568,29.008 C139.568,29.1199998 139.648,29.2399998 139.808,29.368 C141.247999,30.616 143.007999,31.24 145.088,31.24 L145.088,31.24 Z M153.584,30.544 C153.584,30.6719999 153.628,30.7799999 153.716,30.868 C153.804,30.9560001 153.912,31 154.04,31 L163.808,31 C163.936,31 164.044,30.9560001 164.132,30.868 C164.22,30.7799999 164.264,30.6719999 164.264,30.544 L164.264,28.576 C164.264,28.4640002 164.22,28.36 164.132,28.264 C164.044,28.168 163.936,28.12 163.808,28.12 L156.704,28.12 L156.704,23.92 L162.632,23.92 C162.76,23.92 162.868,23.8759998 162.956,23.788 C163.044,23.7000002 163.088,23.5920002 163.088,23.464 L163.088,21.472 C163.088,21.3600002 163.044,21.256 162.956,21.16 C162.868,21.064 162.76,21.016 162.632,21.016 L156.704,21.016 L156.704,17.08 L163.808,17.08 C163.936,17.08 164.044,17.0360005 164.132,16.948 C164.22,16.8599995 164.264,16.7519995 164.264,16.624 L164.264,14.656 C164.264,14.5439995 164.22,14.44 164.132,14.344 C164.044,14.248 163.936,14.2 163.808,14.2 L154.04,14.2 C153.912,14.2 153.804,14.2439995 153.716,14.332 C153.628,14.4200005 153.584,14.5280005 153.584,14.656 L153.584,30.544 Z" id="WAVE-HOUSE-" fill="#FFFFFF"></path>
                </g>
            </g>
        </g>
    </g>
</svg>