<?xml version="1.0" encoding="UTF-8"?>
<svg width="199px" height="98px" viewBox="0 0 199 98" version="1.1" xmlns="http://www.w3.org/2000/svg" xmlns:xlink="http://www.w3.org/1999/xlink">
    <!-- Generator: Sketch 3.7 (28169) - http://www.bohemiancoding.com/sketch -->
    <title>NR</title>
    <desc>Created with Sketch.</desc>
    <defs></defs>
    <g id="Page-1" stroke="none" stroke-width="1" fill="none" fill-rule="evenodd">
        <g id="Tenant-NR" transform="translate(-541.000000, -281.000000)" fill="#FFFFFF">
            <g id="Current-tenants">
                <g id="NR" transform="translate(541.000000, 281.000000)">
                    <path d="M198.2,27.4 C198.2,12.4 186,0.1 170.9,0.1 L96.1,0.1 C93.6,0.1 91.6,2.1 91.6,4.6 L91.6,28.3 C91.6,30.8 93.6,32.8 96.1,32.8 C98.6,32.8 100.6,30.8 100.6,28.3 L100.6,9.2 L170.9,9.2 C180.9,9.2 189.1,17.3 189.1,27.4 C189.1,37.4 181,45.6 170.9,45.6 L144.4,45.6 C142.5,45.6 140.9,46.7 140.2,48.4 C139.5,50.1 139.9,52.1 141.2,53.4 L185.7,96.7 C186.6,97.6 187.7,98 188.9,98 C190.1,98 191.3,97.5 192.2,96.6 C194,94.8 193.9,91.9 192.1,90.2 L155.6,54.7 L170.9,54.7 C186,54.7 198.2,42.4 198.2,27.4" id="Shape"></path>
                    <path d="M96.1,63.9 C93.6,63.9 91.6,65.9 91.6,68.4 L91.6,82.6 L7.7,1.3 C6.4,2.73114864e-14 4.4,-0.3 2.8,0.4 C1.1,1.1 0,2.8 0,4.6 L0,92.5 C0,95 2,97 4.6,97 C7.1,97 9.1,95 9.1,92.5 L9.1,15.3 L93,96.6 C93.9,97.4 95,97.9 96.2,97.9 C96.8,97.9 97.4,97.8 98,97.5 C99.7,96.8 100.8,95.1 100.8,93.3 L100.8,68.4 C100.6,66 98.6,63.9 96.1,63.9" id="Shape"></path>
                </g>
            </g>
        </g>
    </g>
</svg>