<?xml version="1.0" encoding="UTF-8"?>
<svg width="250px" height="105px" viewBox="0 0 250 105" version="1.1" xmlns="http://www.w3.org/2000/svg" xmlns:xlink="http://www.w3.org/1999/xlink">
    <!-- Generator: Sketch 3.7 (28169) - http://www.bohemiancoding.com/sketch -->
    <title>Rootstrap</title>
    <desc>Created with Sketch.</desc>
    <defs>
        <polygon id="path-1" points="19.7167266 25.7139388 19.7167266 0.173471223 0.742985612 0.173471223 0.742985612 25.7139388 19.7167266 25.7139388"></polygon>
    </defs>
    <g id="Page-1" stroke="none" stroke-width="1" fill="none" fill-rule="evenodd">
        <g id="Tenant-Rootstrap" transform="translate(-515.000000, -269.000000)">
            <g id="Current-tenants">
                <g id="Rootstrap" transform="translate(515.000000, 269.000000)">
                    <g id="Group-24" transform="translate(0.000000, 0.325540)">
                        <path d="M9.6323741,90.3786871 C13.305036,90.3786871 15.1422662,88.907464 15.1422662,85.9632194 C15.1422662,84.4560252 14.680036,83.3669964 13.7555755,82.6979317 C12.8311151,82.0297662 11.4570144,81.6943345 9.6323741,81.6943345 L3.46600719,81.6943345 L3.46600719,90.3786871 L9.6323741,90.3786871 Z M16.1269784,80.2905576 C17.7807554,81.5432554 18.6080935,83.4344424 18.6080935,85.9632194 C18.6080935,87.8607014 18.1341727,89.4056655 17.1854317,90.5981115 C16.2366906,91.7896583 14.9597122,92.6403777 13.3544964,93.1520683 L18.8634892,102.747392 C18.9363309,102.893975 18.9732014,103.027968 18.9732014,103.148471 C18.9732014,103.367896 18.8940647,103.556745 18.7357914,103.714119 C18.577518,103.873291 18.3895683,103.951529 18.1710432,103.951529 L16.6008993,103.951529 C15.9201439,103.951529 15.3976619,103.623291 15.032554,102.966817 L9.74208633,93.6628597 L3.46600719,93.6628597 L3.46600719,102.966817 C3.46600719,103.234802 3.36888489,103.465018 3.17464029,103.660162 C2.9794964,103.854406 2.74838129,103.951529 2.48039568,103.951529 L0.984892086,103.951529 C0.716906475,103.951529 0.486690647,103.854406 0.291546763,103.660162 C0.0973021583,103.465018 0.000179856115,103.234802 0.000179856115,102.966817 L0.000179856115,79.3957734 C0.000179856115,79.1286871 0.0973021583,78.8975719 0.291546763,78.7033273 C0.486690647,78.5090827 0.716906475,78.4110612 0.984892086,78.4110612 L9.81492806,78.4110612 C12.3688849,78.4110612 14.4732014,79.0378597 16.1269784,80.2905576 L16.1269784,80.2905576 Z" id="Fill-3" fill="#FFFFFF"></path>
                        <path d="M34.0048561,83.0446942 C32.8133094,84.1885791 32.1811151,85.8792266 32.1073741,88.1166367 C32.0830935,88.8459532 32.0714029,89.867536 32.0714029,91.1813849 C32.0714029,92.4952338 32.0830935,93.5168165 32.1073741,94.2461331 C32.1811151,96.4844424 32.8133094,98.1750899 34.0048561,99.3180755 C35.1964029,100.46196 36.7656475,101.033004 38.7116906,101.033004 C40.6577338,101.033004 42.2269784,100.46196 43.4185252,99.3180755 C44.6100719,98.1750899 45.2431655,96.4844424 45.3160072,94.2461331 C45.3645683,92.7866007 45.3888489,91.765018 45.3888489,91.1813849 C45.3888489,90.5977518 45.3645683,89.5761691 45.3160072,88.1166367 C45.2431655,85.8792266 44.6100719,84.1885791 43.4185252,83.0446942 C42.2269784,81.9017086 40.6577338,81.3297662 38.7116906,81.3297662 C36.7656475,81.3297662 35.1964029,81.9017086 34.0048561,83.0446942 M44.075,79.3594424 C45.5830935,80.2353417 46.7323741,81.4205935 47.523741,82.9169964 C48.3133094,84.4133993 48.7332734,86.0860612 48.7818345,87.9340827 C48.8303957,89.3936151 48.8555755,90.4763489 48.8555755,91.1813849 C48.8555755,91.8873201 48.8303957,92.9691547 48.7818345,94.4286871 C48.7089928,96.2776079 48.2773381,97.9493705 47.4868705,99.4457734 C46.6964029,100.941277 45.552518,102.127428 44.0570144,103.002428 C42.5615108,103.878327 40.7791367,104.316277 38.7116906,104.316277 C36.6442446,104.316277 34.8627698,103.878327 33.3663669,103.002428 C31.8708633,102.127428 30.7269784,100.941277 29.9365108,99.4457734 C29.1460432,97.9493705 28.7143885,96.2776079 28.6415468,94.4286871 C28.6172662,93.6993705 28.6055755,92.6166367 28.6055755,91.1813849 C28.6055755,89.7461331 28.6172662,88.6633993 28.6415468,87.9340827 C28.6901079,86.0860612 29.1091727,84.4133993 29.9005396,82.9169964 C30.6910072,81.4205935 31.8393885,80.2353417 33.3483813,79.3594424 C34.8564748,78.4835432 36.6442446,78.0455935 38.7116906,78.0455935 C40.7791367,78.0455935 42.5669065,78.4835432 44.075,79.3594424" id="Fill-5" fill="#FFFFFF"></path>
                        <path d="M64.3620504,83.0446942 C63.1696043,84.1885791 62.5383094,85.8792266 62.4645683,88.1166367 C62.4402878,88.8459532 62.4276978,89.867536 62.4276978,91.1813849 C62.4276978,92.4952338 62.4402878,93.5168165 62.4645683,94.2461331 C62.5383094,96.4844424 63.1696043,98.1750899 64.3620504,99.3180755 C65.5535971,100.46196 67.1228417,101.033004 69.0688849,101.033004 C71.0149281,101.033004 72.5832734,100.46196 73.7757194,99.3180755 C74.9672662,98.1750899 75.5994604,96.4844424 75.6732014,94.2461331 C75.7217626,92.7866007 75.7460432,91.765018 75.7460432,91.1813849 C75.7460432,90.5977518 75.7217626,89.5761691 75.6732014,88.1166367 C75.5994604,85.8792266 74.9672662,84.1885791 73.7757194,83.0446942 C72.5832734,81.9017086 71.0149281,81.3297662 69.0688849,81.3297662 C67.1228417,81.3297662 65.5535971,81.9017086 64.3620504,83.0446942 M74.4321942,79.3594424 C75.9402878,80.2353417 77.0895683,81.4205935 77.880036,82.9169964 C78.6705036,84.4133993 79.0904676,86.0860612 79.1390288,87.9340827 C79.1875899,89.3936151 79.2118705,90.4763489 79.2118705,91.1813849 C79.2118705,91.8873201 79.1875899,92.9691547 79.1390288,94.4286871 C79.0661871,96.2776079 78.6336331,97.9493705 77.8440647,99.4457734 C77.0526978,100.941277 75.9097122,102.127428 74.4142086,103.002428 C72.9178058,103.878327 71.1363309,104.316277 69.0688849,104.316277 C67.0005396,104.316277 65.2190647,103.878327 63.7235612,103.002428 C62.2280576,102.127428 61.0841727,100.941277 60.293705,99.4457734 C59.5032374,97.9493705 59.0715827,96.2776079 58.998741,94.4286871 C58.9735612,93.6993705 58.9618705,92.6166367 58.9618705,91.1813849 C58.9618705,89.7461331 58.9735612,88.6633993 58.998741,87.9340827 C59.0473022,86.0860612 59.4663669,84.4133993 60.2577338,82.9169964 C61.0473022,81.4205935 62.1965827,80.2353417 63.7055755,79.3594424 C65.2136691,78.4835432 67.0005396,78.0455935 69.0688849,78.0455935 C71.1363309,78.0455935 72.9241007,78.4835432 74.4321942,79.3594424" id="Fill-7" fill="#FFFFFF"></path>
                        <path d="M106.175719,78.7028777 C106.369964,78.8980216 106.467986,79.1291367 106.467986,79.396223 L106.467986,80.7100719 C106.467986,80.9771583 106.369964,81.2082734 106.175719,81.402518 C105.980576,81.5976619 105.75036,81.6947842 105.482374,81.6947842 L98.6595324,81.6947842 L98.6595324,102.966367 C98.6595324,103.234353 98.5615108,103.465468 98.3672662,103.659712 C98.1721223,103.854856 97.9419065,103.951978 97.6748201,103.951978 L96.1784173,103.951978 C95.9104317,103.951978 95.6793165,103.854856 95.4850719,103.659712 C95.2899281,103.465468 95.193705,103.234353 95.193705,102.966367 L95.193705,81.6947842 L88.369964,81.6947842 C88.1028777,81.6947842 87.8717626,81.5976619 87.6766187,81.402518 C87.4823741,81.2082734 87.3852518,80.9771583 87.3852518,80.7100719 L87.3852518,79.396223 C87.3852518,79.1291367 87.4823741,78.8980216 87.6766187,78.7028777 C87.8717626,78.5086331 88.1028777,78.4115108 88.369964,78.4115108 L105.482374,78.4115108 C105.75036,78.4115108 105.980576,78.5086331 106.175719,78.7028777" id="Fill-9" fill="#FFFFFF"></path>
                        <path d="M132.956745,85.2158273 C132.785881,85.3741007 132.591637,85.4532374 132.373112,85.4532374 L130.876709,85.4532374 C130.584442,85.4532374 130.365917,85.3983813 130.220234,85.2886691 C130.073651,85.1789568 129.915378,84.9667266 129.746313,84.6501799 C129.356924,83.8965827 128.681565,83.153777 127.721133,82.4244604 C126.759802,81.6951439 125.489119,81.330036 123.908183,81.330036 C122.448651,81.330036 121.213939,81.6582734 120.204946,82.3147482 C119.195054,82.9721223 118.690558,83.9082734 118.690558,85.1241007 C118.690558,85.9514388 118.939658,86.6267986 119.438759,87.1492806 C119.936061,87.6726619 120.690558,88.1232014 121.70045,88.5 C122.709442,88.8767986 124.236421,89.3336331 126.279586,89.8678058 C129.052968,90.5980216 131.016996,91.4910072 132.171673,92.5494604 C133.327248,93.6079137 133.904586,95.0485612 133.904586,96.8732014 C133.904586,98.3327338 133.497212,99.6223022 132.683363,100.741007 C131.867716,101.859712 130.718435,102.735612 129.235522,103.367806 C127.750809,104 126.035881,104.316547 124.090737,104.316547 C122.290378,104.316547 120.648291,103.975719 119.164478,103.294964 C117.680665,102.614209 116.5125,101.744604 115.661781,100.686151 C114.810162,99.6276978 114.359622,98.5764388 114.31196,97.5296763 C114.31196,97.3111511 114.391097,97.1232014 114.549371,96.9640288 C114.706745,96.8066547 114.895594,96.727518 115.115018,96.727518 L116.610522,96.727518 C116.877608,96.727518 117.097032,96.7823741 117.267896,96.8911871 C117.43696,97.0008993 117.595234,97.2140288 117.741817,97.5296763 C118.130306,98.4055755 118.841637,99.2086331 119.875809,99.9379496 C120.909982,100.668165 122.314658,101.032374 124.090737,101.032374 C125.865917,101.032374 127.367716,100.65018 128.596133,99.8830935 C129.82455,99.1169065 130.438759,98.1142086 130.438759,96.8732014 C130.438759,96.0701439 130.115917,95.3956835 129.472032,94.8480216 C128.827248,94.301259 127.945953,93.8390288 126.826349,93.4622302 C125.707644,93.0845324 124.065558,92.6169065 121.900989,92.0566547 C119.541277,91.4496403 117.838939,90.567446 116.793076,89.4118705 C115.746313,88.2571942 115.223831,86.8273381 115.223831,85.1241007 C115.223831,83.8597122 115.552968,82.692446 116.208543,81.6223022 C116.865917,80.5521583 117.850629,79.6879496 119.164478,79.0314748 C120.478327,78.375 122.059263,78.0458633 123.908183,78.0458633 C125.756205,78.0458633 127.374011,78.4055755 128.760701,79.1223022 C130.146493,79.8408273 131.217536,80.7221223 131.971133,81.7679856 C132.72473,82.8138489 133.126709,83.7742806 133.17527,84.6501799 C133.19955,84.8696043 133.126709,85.057554 132.956745,85.2158273" id="Fill-11" fill="#FFFFFF"></path>
                        <path d="M160.613849,78.7028777 C160.808094,78.8980216 160.906115,79.1291367 160.906115,79.396223 L160.906115,80.7100719 C160.906115,80.9771583 160.808094,81.2082734 160.613849,81.402518 C160.418705,81.5976619 160.188489,81.6947842 159.920504,81.6947842 L153.097662,81.6947842 L153.097662,102.966367 C153.097662,103.234353 152.99964,103.465468 152.805396,103.659712 C152.610252,103.854856 152.380036,103.951978 152.11295,103.951978 L150.616547,103.951978 C150.348561,103.951978 150.117446,103.854856 149.923201,103.659712 C149.728058,103.465468 149.631835,103.234353 149.631835,102.966367 L149.631835,81.6947842 L142.808094,81.6947842 C142.541007,81.6947842 142.309892,81.5976619 142.114748,81.402518 C141.920504,81.2082734 141.823381,80.9771583 141.823381,80.7100719 L141.823381,79.396223 C141.823381,79.1291367 141.920504,78.8980216 142.114748,78.7028777 C142.309892,78.5086331 142.541007,78.4115108 142.808094,78.4115108 L159.920504,78.4115108 C160.188489,78.4115108 160.418705,78.5086331 160.613849,78.7028777" id="Fill-13" fill="#FFFFFF"></path>
                        <path d="M180.352698,90.3786871 C184.02536,90.3786871 185.86259,88.907464 185.86259,85.9632194 C185.86259,84.4560252 185.39946,83.3669964 184.475899,82.6979317 C183.55054,82.0297662 182.176439,81.6943345 180.352698,81.6943345 L174.186331,81.6943345 L174.186331,90.3786871 L180.352698,90.3786871 Z M186.847302,80.2905576 C188.501079,81.5432554 189.328417,83.4344424 189.328417,85.9632194 C189.328417,87.8607014 188.853597,89.4056655 187.905755,90.5981115 C186.956115,91.7896583 185.680036,92.6403777 184.073921,93.1520683 L189.583813,102.747392 C189.656655,102.893975 189.693525,103.027968 189.693525,103.148471 C189.693525,103.367896 189.613489,103.556745 189.456115,103.714119 C189.297842,103.873291 189.108993,103.951529 188.890468,103.951529 L187.321223,103.951529 C186.640468,103.951529 186.117986,103.623291 185.752878,102.966817 L180.46241,93.6628597 L174.186331,93.6628597 L174.186331,102.966817 C174.186331,103.234802 174.089209,103.465018 173.894065,103.660162 C173.69982,103.854406 173.468705,103.951529 173.200719,103.951529 L171.705216,103.951529 C171.43723,103.951529 171.206115,103.854406 171.011871,103.660162 C170.817626,103.465018 170.720504,103.234802 170.720504,102.966817 L170.720504,79.3957734 C170.720504,79.1286871 170.817626,78.8975719 171.011871,78.7033273 C171.206115,78.5090827 171.43723,78.4110612 171.705216,78.4110612 L180.535252,78.4110612 C183.089209,78.4110612 185.192626,79.0378597 186.847302,80.2905576 L186.847302,80.2905576 Z" id="Fill-15" fill="#FFFFFF"></path>
                        <path d="M214.613489,94.9031475 L209.578417,81.8770683 L204.506475,94.9031475 L214.613489,94.9031475 Z M203.229496,98.1864209 L201.332014,103.039838 C201.113489,103.647752 200.638669,103.951709 199.909353,103.951709 L198.558633,103.951709 C198.340108,103.951709 198.151259,103.872572 197.992986,103.714299 C197.834712,103.556924 197.756475,103.368076 197.756475,103.148651 C197.756475,103.027248 197.805036,102.857284 197.902158,102.63786 L206.841906,79.6153777 C207.157554,78.8123201 207.705216,78.411241 208.483094,78.411241 L210.672842,78.411241 C211.450719,78.411241 211.998381,78.8123201 212.314029,79.6153777 L221.216906,102.63786 C221.314029,102.857284 221.363489,103.027248 221.363489,103.148651 C221.363489,103.368076 221.284353,103.556924 221.126079,103.714299 C220.967806,103.872572 220.779856,103.951709 220.560432,103.951709 L219.210612,103.951709 C218.481295,103.951709 218.006475,103.647752 217.78795,103.039838 L215.890468,98.1864209 L203.229496,98.1864209 Z" id="Fill-17" fill="#FFFFFF"></path>
                        <g id="Group-21" transform="translate(230.215827, 78.237410)">
                            <mask id="mask-2" fill="white">
                                <use xlink:href="#path-1"></use>
                            </mask>
                            <g id="Clip-20"></g>
                            <path d="M10.7402878,12.506205 C12.5163669,12.506205 13.878777,12.1231115 14.8266187,11.3569245 C15.7753597,10.5907374 16.2501799,9.44145683 16.2501799,7.90908273 C16.2501799,4.94145683 14.4129496,3.45764388 10.7402878,3.45764388 L4.20971223,3.45764388 L4.20971223,12.506205 L10.7402878,12.506205 Z M17.2169065,2.14379496 C18.8832734,3.45764388 19.7169065,5.37940647 19.7169065,7.90908273 C19.7169065,9.61142086 19.3203237,11.0592626 18.5307554,12.2508094 C17.7402878,13.4423561 16.6818345,14.329946 15.356295,14.9144784 C14.0298561,15.4981115 12.5523381,15.7894784 10.9228417,15.7894784 L4.20971223,15.7894784 L4.20971223,24.7292266 C4.20971223,24.9972122 4.11169065,25.2283273 3.91744604,25.4225719 C3.72320144,25.6177158 3.49208633,25.7139388 3.22410072,25.7139388 L1.72859712,25.7139388 C1.46061151,25.7139388 1.2294964,25.6177158 1.0352518,25.4225719 C0.840107914,25.2283273 0.742985612,24.9972122 0.742985612,24.7292266 L0.742985612,1.15818345 C0.742985612,0.891097122 0.840107914,0.659982014 1.0352518,0.46573741 C1.2294964,0.271492806 1.46061151,0.173471223 1.72859712,0.173471223 L10.9228417,0.173471223 C13.452518,0.173471223 15.5505396,0.830845324 17.2169065,2.14379496 L17.2169065,2.14379496 Z" id="Fill-19" fill="#FFFFFF" mask="url(#mask-2)"></path>
                        </g>
                        <path d="M167.245144,0.224640288 L140.002338,27.467446 C136.296403,17.7507194 126.890827,10.8469424 115.871942,10.8469424 C101.791906,10.8469424 90.3458633,22.1185252 90.0598921,36.1293165 L99.078777,36.1293165 C99.3629496,27.0960432 106.769424,19.8595324 115.871942,19.8595324 C124.554496,19.8595324 131.689388,26.4458633 132.576079,34.893705 L132.486151,34.9827338 L132.597662,35.0933453 C132.629137,35.4368705 132.654317,35.781295 132.665108,36.1293165 L133.632734,36.1293165 L141.683993,36.1293165 L144.084173,36.1293165 L173.616547,6.59604317 L167.245144,0.224640288 Z" id="Fill-22" fill="#FFFFFF"></path>
                    </g>
                </g>
            </g>
        </g>
    </g>
</svg>