<?xml version="1.0" encoding="utf-8"?>
<!-- Generator: Adobe Illustrator 18.0.0, SVG Export Plug-In . SVG Version: 6.00 Build 0)  -->
<!DOCTYPE svg PUBLIC "-//W3C//DTD SVG 1.1//EN" "http://www.w3.org/Graphics/SVG/1.1/DTD/svg11.dtd">
<svg version="1.1" id="Layer_1" xmlns="http://www.w3.org/2000/svg" xmlns:xlink="http://www.w3.org/1999/xlink" x="0px" y="0px"
	 width="130px" height="94.7px" viewBox="0 0 130 94.7" enable-background="new 0 0 130 94.7" xml:space="preserve">
<g>
	<path fill="#FFFFFF" d="M60.7,93.1c0.1-0.2-0.2-0.5-0.2-0.7c-0.4-0.1-0.2,0.5-0.1,0.5C60.5,92.9,60.6,93,60.7,93.1z"/>
	<path fill="#FFFFFF" d="M58.5,93.4c0.4-0.2,1.3,0,1.5-0.7c-0.7-0.4-1.4,0.3-2.1,0.2c-0.4,0-0.4,0.5-0.2,0.6
		C58,93.7,58.2,93.5,58.5,93.4z"/>
	<path fill="#FFFFFF" d="M86.8,84.9c-3.2,0.6-6.4,0.5-9.6,0c-0.9-0.1-2-0.6-2.9-0.1c0.1,0.2,0.1,0.5,0.3,0.6c1,0.3,2,0.4,2.9,0.4
		c0,0.3-0.5,0.3-0.4,0.7c1.6,0.2,3.4,1,5.7,0.7c0.3,0,0.6-0.1,0.9-0.1c0.1-0.5-0.3-0.6-0.4-0.9c1.3-0.1,2.4-0.1,3.2-0.5
		C86.9,85.5,86.8,85.1,86.8,84.9z"/>
	<path fill="#FFFFFF" d="M129.3,77.6c-1.2,0-2.4,0.4-3.6,0.7l-8.4-1c-0.4-0.1-0.7-0.4-1-0.1c-0.3,0.2-0.5,0.6-0.8,0.6l-4.8,0.3
		c-0.2,0-0.4-0.2-0.5-0.3c-0.2-0.6-0.7-0.8-1-1.3c0.6-0.6,1.7-0.5,2.1-1.2c0.2-0.4,0.6-0.6,0.8-0.9c0.2-0.5,0-1.1,0.3-1.6l2.5-4.3
		c0.9-1.5,1.3-3.1,2.3-4.5c0.3-0.4,0.4-0.8,0.3-1.3c-0.1-0.4-0.9-0.7-1.1-0.3c-0.5,0.7-1.4,0.5-2,0.9c-0.5,0.3-1.2,1.2-1.8,0.5
		c-0.2-0.2-0.1-0.5-0.2-0.7l-2.3-3c0.3,0,0.8-0.2,0.9,0c0.7,0.8,1.8,0.5,2.7,0.4c0.8-0.1,1.5-0.7,2.4-0.9c0.3-0.1,0.5-0.3,0.7-0.5
		c0.9-0.7,1.6-1.7,2.7-2.2c0.8-0.9,1.5-1.6,2.6-2.2c0.2-0.1,0.6,0,0.8-0.2c0.7-0.4,1.3-0.9,1.9-1.5c0.3-0.3,0.3-0.9-0.1-1
		c-0.5-0.2-1.1-0.1-1.6-0.2c-0.2,0-0.3-0.2-0.5-0.3c-0.6-0.4-1.4-1.1-2.3-0.6c-0.3-0.3-0.6-0.6-0.9-0.8c-1.7-1.5-3.6-2.9-5.5-4
		c-0.8-1.3-1.9-2.4-2.7-3.7c-1-1.4-2-2.5-2-3.8c-0.2-0.1-0.6,0.1-0.7-0.1c-1.1-1.4-2.2-2.9-3-4.5c-0.3-0.6-1.4-1.1-1.1-2
		c0.2-0.6-0.4-1-0.9-1.1c-0.2-0.8-0.9-1.3-1.3-2c-0.1-0.2,0-0.5-0.2-0.7c-1-1.7-2.3-3.2-2.9-5.1c-0.5-1.6-1.8-2.8-2.4-4.4
		c-0.2-0.5-0.6-1.1-0.7-1.5c-0.4-1.4-1.1-2.7-1.8-4l-1.6-3.3c-0.5-0.9-0.4-2.2-1.3-2.9c-0.2-0.1-0.1-0.5-0.2-0.8
		c-0.3-0.7-0.5-1.5-0.9-2.2c-0.4-0.8-0.3-1.9,0.1-2.8c0.1-0.3,0.3-0.8-0.1-1.1c-0.6-0.3-1.2,0.2-1.4,0.6c-0.2,0.3-0.3,0.8-0.4,1.1
		c-0.3,0.9-0.7,1.9-1.7,1.7l-5.7-1c0-0.4,0.1-0.7,0.1-1.1c0-0.5-0.5-0.6-0.9-0.7c-1.5-0.3-3,0.5-4.5,0.4c-0.3,0-0.5,0.3-0.8,0.3
		c-2.6,0.5-5.3,0.6-8,1.1c-2.4,0.4-4.9,0.2-7.4,0.7c-2,0.4-4,0.1-6,0.6c-2.8-0.1-5.6,0.5-8.4,0.5c-0.5,0-1-0.2-1.3,0.2
		c-0.2,0.3-0.3,0.6-0.4,1c-0.1,0.8,0.1,1.6-0.3,2.3L30.5,27.3c-0.3,0.5-0.6,1-1,1.5c-3.3,5-6.5,10.2-9.8,15.2
		c-1.3,2-2.5,3.9-3.7,5.9c-2.8,4.7-6,9.1-8.8,13.9c-0.2,0.3-0.4,0.7-0.6,0.9c-0.3,0.4-0.6,1.2-1.1,1.3C5,66.1,4.4,66.2,4,66.5
		c-0.5,0.3-0.7,1.2-0.2,1.6c1,0.9,2.4,0.8,3.6,1.1c0.8,1.6,2.9,2.1,5.1,3.3c4.8,2.6,9.3,5.7,14.1,8.3c0.5,0.3,1.3,0.5,1.3,1.2
		c0.4,0.1,0.8,0.2,1.1,0.3c0.3,0.1,0.6,0.2,0.9,0.2c1.2-0.4,2.6-0.2,3.9-0.2c-0.2,0.1-0.4,0.2-0.6,0.2c-0.2,0.1-0.4,0.2-0.7,0.3
		c0.9,0.5,2,0.5,2.9,0.6c3.5,0.7,7,0.5,10.5,0.3c0.2,0,0.7-0.5,0.3-0.4c-3,0-6,0.1-9.1-0.2c2.3,0.1,4.7-0.6,7-0.1
		c0.5,0.1,1.1-0.5,1.7-0.4c1.6,0.3,3.2,0.4,4.8,0.4c0.5,0-0.7,0.3,0,0.5c0.5,0.2,1.1-0.1,1.6,0.2l-6.3,0.4c-0.3,0-0.6,0.3-0.3,0.5
		c0.2,0.1,0.7-0.1,0.8,0.2l-3.1,0.1c-4.3,0-8.8,0.5-13-1.1c0,0.2-0.1,0.5-0.1,0.7c0,0.3,0.6,0.2,0.6,0.6c-0.8-0.1-1.8-0.2-2.4-0.2
		c-2.2,0-4.3-0.6-6.4-0.6L9.5,84.2c-0.4,0-0.7,0.6-0.5,0.9c0.1,0.1,0.3,0.3,0.4,0.3l9.3-0.1c1.5,0,3.1-0.4,4.6,0.1
		c0.4,0.2,1.1,0.2,1.6,0.1c0.1,0.3-0.2,0.8,0.1,0.7c0.9-0.1,1.8,0,2.7-0.2c0.5-0.1,0,0.6,0.4,0.6c2,0.2,4.1,0,6.1-0.5
		c0.1,0-0.3-0.6,0.1-0.6c1.5,0.2,3,0.2,4.5,0.1c0.4,0.9,1.4,0.5,2.1,0.9c0.2,0.1,0.3,0.5,0.5,0.5c1.9,0.4,3.8,0.3,5.7,0.2
		c0.5,0,1.1-0.2,1.2-0.8c-0.2,0-0.5-0.2-0.7-0.1c-1.5,0.3-3.1,0.3-4.7,0l7-1.2c0.4-0.1,0.2-0.6,0.5-0.7c2.3-0.3,4.7-0.4,7-0.6
		c0.3,0,0.5-0.6,0.2-0.6c-1.7,0-3.4,0.3-5.1,0.2c0.2-0.2,0.3-0.5,0.5-0.6c0.4-0.2,1-0.2,1.5-0.3c1.5-0.3,3-0.1,4.4,0
		c-0.2,0.2-0.3,0.4-0.5,0.5c-0.2,0.1-0.3,0.4,0,0.5c0.6,0.2,1.2-0.2,1.7-0.1l0-0.5c0.5,0.9,1.3,0.2,1.9,0.1l4-0.3
		c2.8,0.4,5.6,0.3,8.4,0.1c-0.7,0.3-1.6,0.1-2.3,0.6c0.2,0.2,0.3,0.5,0.5,0.5c4.1-0.4,8.2-0.4,12.4-0.3l7.4-1.9
		c3.7,1,7.5,1.8,11.3,2.1c0.5,0,1.2,0.1,1.4-0.5c0.1-0.3-0.2-0.6-0.4-0.6c-2.8,0-5.7-0.3-8.4-1.4c-0.5-0.2-1.3,0.2-1.8-0.2
		c-0.7-0.5-1.7-0.7-2.4-0.4c-1,0.4-2.1,0.7-3.2,0.8c-1.5,0.1-3,1-4.6,0.7c-0.1-0.2-0.1-0.5-0.2-0.6c-0.4-0.2-0.9-0.3-1.2-0.3
		c-1.1,0.4-2.3,0.4-3.5,0.5c-2.1,0.1-3.8,0.8-5.4,0.1c-2.8,0.4-5.6,0.3-8.3-0.5c-0.2,0-0.4,0.3-0.6,0.3c-1.2,0.2-2.4,0.3-3.7,0.3
		l-0.2-0.6c-1.7,0-3.4,0.2-5.1-0.1c0.3,0,0.4-0.4,0.7-0.5l46-1.6c0,0.2,0.1,0.3,0.1,0.5c0.1,0.5-0.5-0.1-0.6,0.1
		c-0.1,0.2,0.1,0.4,0.1,0.6c1.5,0.4,3.1,0.5,4.6,0.3c3-0.3,6-0.1,8.9-1l0-0.7c-2.6,0.4-4.9,0.3-7,0.3l0.3-0.4
		c1.2,0.2,2.4,0.1,3.6,0.1c1.2-0.3,2.2-0.3,3-0.1c-0.1,0.1-0.2,0.1,0.1,0.1c2.4,0,4.9-0.1,7.3,0.3c0.4,0.1,0.9-0.2,1.3-0.2
		c1.6,0.2,3.2-0.1,4.8-0.2c0.1,0,0.3-0.4,0.4-0.6C130.1,78.2,129.7,77.6,129.3,77.6z M119.1,51.2c0.7,0.3,1.4,0.7,1.9,1.3
		c-0.4,0.2-0.8-0.6-1.3-0.5C119.4,52.1,119,51.6,119.1,51.2z M117.2,54.2c0.1-0.5,0.8-0.5,1-0.3c0.2,0.2-0.1,0.3-0.3,0.5
		C117.8,54.5,117.1,54.7,117.2,54.2z M115.1,55.1c0.4-0.1,0.8-0.3,1.3-0.3c-0.4,0.4-0.9,0.8-1.4,0.8C114.5,55.5,115,55.1,115.1,55.1
		z M113.7,55.5c0.4-0.1,0.4,0.4,0.2,0.6c-0.2,0.1-0.6,0.2-0.7-0.1C113.2,55.6,113.5,55.6,113.7,55.5z M113.3,57.8
		c0.2-0.1,0.5-0.1,0.7-0.2c-0.1,0.4,0,0.9,0.4,1.2c0.1-0.1,0.4-0.3,0.4-0.4c0.2-0.5-0.3-1.3,0.2-1.4c1.3-0.2,2.3-1.2,3.7-1.1
		c0.1,0,0.2,0.1,0.4,0c-0.4,0.4-0.6,0.6-0.9,0.8c-1.5,1-2.4,2.2-3.6,2.4c-0.5,0.1-0.9,0.6-1.5,0.6c-0.6,0-1.3,0.1-1.8-0.3
		c-0.1-0.1-0.7-0.1-0.5-0.3c0.6-0.6,1.4-0.2,2,0C113.3,58.6,113,58,113.3,57.8z M110.7,56.6c0.2,0,0.4-0.1,0.5-0.2
		c0.4-0.2,0.8-0.3,1.2-0.3c0.2,0,0.1,0.5-0.2,0.5c-0.5-0.1-0.7,0.2-1.1,0.3C110.9,56.9,110.6,57,110.7,56.6z M32.5,85.8
		c-0.3,0.1-0.6,0-0.9,0c0-0.2,0.3-0.2,0.4-0.3c0.3-0.2,0.7,0,1,0C33.3,85.9,32.7,85.8,32.5,85.8z M82.4,82.9l0.1,0.3l-0.4-0.1
		L82.4,82.9z M80.4,82.8c0.5,0,1,0.1,1.4,0.1c0.2,0.4-0.5,0.1-0.6,0.3L80,83C80.1,82.9,80.3,82.8,80.4,82.8z M45.7,9.2
		c0-0.4,0.4,0.2,0.5,0.3c1.5,1.9,2.8,4,4.6,5.8c-0.2,0.8-1.1,1.3-2.3,2.2c-0.9,1.6-1.4,2-2.1,2.4c0-0.9-0.1-2.1,0.5-3.5
		c0.2-0.3-0.2-1.1-0.5-1.7c-0.1-0.2-0.5-0.3-0.7-0.4C45.8,12.6,45.8,10.9,45.7,9.2z M47.1,8.3c0.1,0,0.3,0,0.4,0
		c2.4,0.6,4.5,1.8,6.9,2.6c-0.1,0.3-0.2,0.6-0.4,0.8c-0.7,0.8-1.8,1.4-2.2,2.4c-0.1,0.3-0.4-0.3-0.6-0.4C49.7,12,48.5,10.1,47.1,8.3
		z M48.2,75.8c0,0.1,0,0.1,0,0.2c-0.2,0.5-0.5-0.3-0.4-0.3C47.9,75.6,48.1,75.7,48.2,75.8z M47.7,72.3c0-0.2,0-0.4,0-0.7
		c0-0.4,0.5-0.2,0.7-0.2c0.3,0.1,0.7,0.2,0.9-0.1c0.2,0.4,0.2,0.8,0.1,1.1c-0.2,0.4-0.8,0.3-1.2,0.3C47.9,72.7,47.6,72.7,47.7,72.3z
		 M45.7,72.3c-0.1-0.3,0.2-0.6,0.5-0.6c0.3,0,0.5,0.2,0.5,0.5c0,0.5,0.1,1-0.1,1.5c-0.1,0.3-0.8,0.5-0.9,0
		C45.6,73.2,45.8,72.7,45.7,72.3z M44.5,72.2c0-0.3,0-0.5,0-0.8c0.8,0.6,0.2,1.5,0.3,2.3c-0.1,0-0.3,0-0.3-0.1
		C44.3,73.1,44.5,72.6,44.5,72.2z M44.4,75.8c0-0.3,0.1-0.5,0.2-0.8c0.3,0.1,0.5,0.5,0.4,0.8c-0.1,0.2-0.4,0.6-0.6,0.3
		C44.3,76,44.3,75.9,44.4,75.8z M9.7,63.1c-0.2,0.3-0.1,0.8-0.4,1.1l-1.9,2.4c-0.2,0.2-0.5,0.2-0.8,0.3c0.4-1.2,1.3-2.1,1.9-3.2
		c1.7-3.3,4-6.2,5.9-9.4c0.9-1.6,2.1-3.1,3-4.8l2.5-3.6l5-7.7l4.5-7.2l5.1-7.7L43,10.1c0.1,0.1,0.3,0.1,0.3,0.2c0,1.3-0.1,2.6,0,4
		c-0.5,0.2-0.5,0.9-0.5,1.3c0,1.1-0.8,1.9-1.7,3.2l-5.5,8C34.1,29,32.4,31,31,33.2c-0.2,0.3-0.6,0.4-0.8,0.6c-0.1,0.1,0,0.4-0.1,0.6
		c-0.9,0.9-1.3,2.1-2.3,3c-1.7,2.8-3.7,5.4-5.5,8.1l-7.4,10.9c-0.1,0.1-0.3,0.2-0.5,0.2c-0.4,0-1,0.3-0.8,0.7
		c0.3,0.5,0.1,1.1-0.3,1.4c-1.2,1.2-1.9,2.7-3,4C10.2,62.9,9.9,62.9,9.7,63.1z M33.7,31.7c-0.1,0.3-0.4,0.5-0.7,0.6
		c-0.3,0.1,0-0.4,0-0.5l0.2-0.1C33.2,31.8,33.8,31.2,33.7,31.7z M22.6,46.7l-0.2,0.4l-0.1-0.3L22.6,46.7z M18.5,52.9
		c0.1-0.3,0.3-0.6,0.5-0.8l0.2,0.3c-0.4,0.3-0.6,0.8-1,0.9C17.8,53.4,18.6,52.9,18.5,52.9z M16.5,56.2c-0.2,0.3-0.4,0.6-0.8,0.7
		c-0.1-0.5,0.4-0.7,0.7-1.1C16.5,56,16.6,56.1,16.5,56.2z M14.7,58.7c-0.2,0.6-0.5,1.4-1.2,1.5c-0.5,0.1,0.2-0.5,0.2-0.5
		c0.2-0.5,0.7-0.9,1.1-1.4C14.7,58.5,14.8,58.6,14.7,58.7z M11.3,63.1c0,0,0.1-0.1,0.1-0.1c0.2-0.3,0.3-0.6,0.5-0.8
		c0.3,0.1,0,0.5-0.1,0.6c-0.2,0.3-0.3,0.6-0.7,0.7C10.7,63.8,11.3,63.1,11.3,63.1z M12.2,70.6l12,2.9c-0.1,0.4-0.6,0.1-0.9,0.1
		c-3.8,0-7.3-1.2-10.7-2.9C12.5,70.8,12.4,70.7,12.2,70.6z M27.2,80.1c-1-0.6-1.9-1.3-2.8-1.9c-2.2-1.5-4.8-2.3-6.8-4.1
		c0,0-0.1,0-0.1,0c-0.1,0-0.5,0.1-0.4-0.1c0.1-0.2,0.2,0,0.4,0.1c0,0,0,0,0,0c9.1,1.4,9.3,1.7,9.4,1.8c0.3,1.1,0.1,2.4,0.6,3.5
		C27.4,79.6,27.3,79.9,27.2,80.1z M32.3,73.3l0-0.3c0.3,0.2,0.6,0.3,0.8,0.2C32.9,73.5,32.5,73.3,32.3,73.3z M35.2,74.1
		c-0.1,0,0.1-0.4,0.2-0.2C35.4,74,35.3,74.1,35.2,74.1z M35.4,82.4c0-0.4,0.3,0,0.5-0.1C35.8,82.5,35.5,82.2,35.4,82.4z M36.1,71
		l-0.7-0.1c-0.1,0.1-0.2,0.2-0.2,0.3c0,0.4,0.3,0.7,0.2,1c0,0.4-0.6,0.1-0.8,0c-0.4-0.2-0.1-0.9-0.4-1.1c-0.5-0.3-0.6,0.3-1.1,0.4
		c-0.7,0.1-1.6,0.1-2.2-0.2c-0.3-0.1-0.7-0.2-0.9-0.4c-0.2-0.3-0.2-0.7-0.5-1c-0.1-0.1-0.3-0.1-0.5-0.1c-0.5,0.5-1.2,1-1.2,1.8
		c-0.2,0-0.3,0.1-0.5,0.1c-1.9,0.1-3.7-0.8-5.6-1.2L9.9,67.8c0.1-0.1,0.2-0.3,0.3-0.3c0.6-0.3,1.3-0.6,1.8-0.4
		c0.9,0.4,2,0.1,3.2-0.3c1.1-0.3,2.2-0.2,3.3-0.1c2.7,0.2,5.5,0.3,8.2,0.8c0.3,0.1,0.6,0.6,1.1,0.6c1.9-0.2,3.7-0.8,5.6-0.7
		c0.2,0-0.1,0.8,0.2,1c0.8,0.5,1.3,1.3,2,1.8C35.7,70.2,36.2,70.5,36.1,71z M36.7,70.4c-0.1-0.1-0.1-0.2-0.2-0.3L36,69.7l0.2-0.1
		l0.2,0.4c0.1,0.1,0.2,0.1,0.3,0.2c0.1,0.1,0.1,0.2,0.2,0.3C36.9,70.5,36.7,70.5,36.7,70.4z M34.6,67.1c0.2-0.1,0.3-0.4,0.5-0.4
		c1.5-0.2,2.4-0.2,3-0.9c0.4-0.4-0.3-0.9-0.3-1.3c-0.4-2.1-1-4.2-1.3-6.3c0-0.3,0.2-0.6,0.1-0.9c-0.2-0.6-0.5-0.9-0.6-1.5
		c-0.1-0.9,0.2-1.9-0.3-2.7c0.2-1.4,0.1-2.9,0-4.4c-0.1-7.5,0.9-15,2.9-22.3c0.2-0.7,0.5-1.4,0.9-1.9c0.3-0.4,0.7-0.7,1-0.9
		c1.1-0.8,1.6-2.3,2.7-3.2c0.2,0.8-0.1,1.6,0,2.3c0,0.2,0.1,0.4,0.1,0.6L43,29.8l-0.3,26.4l-0.1,13c0,1-0.1,2.1,0.2,3.1
		c0.1,0.3,0,0.8-0.3,1.1c-0.5,0.4-1.7,0.1-1.8-0.7c-0.1-0.7-0.9-0.6-1.4-1C37.6,70.2,36.6,68.2,34.6,67.1z M42.7,75.8
		c-0.2,0-0.4,0.2-0.5,0.1c-0.7-0.2-1.5-0.1-2.2-0.1c-0.6,0-0.1-0.6-0.1-0.6C40.5,74.6,41.4,74.6,42.7,75.8z M45,82
		c-0.7,0.2-1.5,0-2.2,0.1c-1.2,0.1-2.5,0.3-3.7,0.2c0.1-0.1,0.3-0.3,0.4-0.3c2-0.4,4.1-0.1,6.1-0.3C45.9,82.1,45.2,82,45,82z
		 M45.9,76.1c-0.2-0.2-0.1-0.4-0.1-0.6c0-0.3,0.3-0.4,0.6-0.4c0.3,0,0.7,0.2,0.6,0.6c-0.1,0,0.4,0.7-0.1,0.6
		C46.5,76.2,46.1,76.4,45.9,76.1z M52.1,82.3c-1.2-0.6-2.5-0.1-3.7-0.1c-0.5,0-1.2-0.1-1.6-0.5c0.1,0,0.3,0,0.4,0
		c1.4,0.3,2.9,0,4.7-0.2c1.1,0.3,2.3,0.3,3.4,0.1c0.2,0,0.4,0.1,0.6,0.1L52.1,82.3z M53,76.5c0-0.2,0-0.4,0.1-0.6
		c0-0.3,0.4-0.6,0.7-0.4c0.3,0.2,0.4,1.1-0.1,1.2C53.5,76.8,53,76.9,53,76.5z M59.4,76.2c-0.5-0.1-0.9,0.3-1.3,0.5
		c-0.8,0.3-1.7,0.2-2.4,0c-0.2-0.1-0.3-0.4-0.4-0.7l0.3-0.5c1.4,0.4,2.8,0.2,4.2,0.3C60.1,75.9,59.5,76.2,59.4,76.2z M60.2,74.5
		l-7-0.4c-0.5,0-0.2-1-0.5-1.4c-0.4-0.5-1.2-0.5-1.8-0.4c-0.1-0.2-0.3-0.3-0.3-0.5c-0.1-0.3,0-0.7,0.1-1c0.2-0.1,0.5-0.2,0.7-0.2
		c0.2,0,0.5,0.2,0.7,0.3c0.4-0.8,1.4-0.9,2-0.6c0.2,0.1,0.4,0.2,0.5,0.3c0.5-0.8,1.7-1,2.9-1.1c0.3,0,0.5,0.6,0.9,0.3
		c0.2-0.1,0.2-0.4,0.3-0.6c0.3-0.5,1-0.1,1.6-0.3c0,0.2,0,0.4-0.1,0.6c-0.1,0.4-0.3,0.7-0.5,1.1c-0.2,0.5,0.4,1,0.9,1.1
		c0.3,0.1,0.6,0.1,0.8,0.2C61.1,72.9,60.5,73.7,60.2,74.5z M62.7,74.3c1-0.7,0.5-1.9,0-2.6c-0.2-0.4-0.3-0.9-0.7-1.2
		c-0.2-0.2-0.7,0.2-0.8-0.5c0-0.2-0.3-0.4-0.5-0.7c-0.2-0.3,0.3-0.5,0.5-0.6c0.9-0.3,2,0,2.5-0.4c0.7-0.6,1.9-0.7,2.8-0.7
		c0.6,0,1.3-0.4,1.9-0.6c0.1,0,0.3,0.2,0.5,0.2c0,1.3,1,2.2,1.5,3.3c0.4,1,1,1.8,1.7,2.6c0.1,0.1-0.1,0.5-0.1,0.7
		c-2.8,0.4-5.6,0.7-8.5,0.7C63.3,74.6,63,74.4,62.7,74.3z M72.1,76.4c-1.4,0.1-2.7,0.4-4.1,0.3l-0.3-0.7c0.2-0.2,0.4-0.5,0.6-0.5
		c0.6,0,1.3-0.1,1.9-0.1c0.7,0,1.4-0.6,2-0.4C72.5,75.3,72.4,76.4,72.1,76.4z M78.4,5.6c0,0.3-0.4,0.6-0.6,0.9
		c0.7,1.1,0.4,2.5,0.2,3.6c-0.1,0.7,0,1.6-0.2,2.3c0,0.3-0.4,0.4-0.5,0.7c0,0.4,0.4,0.8,0.4,1c-0.3,1.6,0.6,3.1,0.4,4.6
		c-0.3,2.2-0.1,4.4-0.2,6.6c-0.5,1.1,0,2.4-0.1,3.5l-0.7,6.6c-0.3,3-0.4,5.9-0.5,8.9c0,0.7-0.2,1.5-0.1,2.2c0.2,3,0.3,6.1,1.1,9.1
		c-0.3,4.1-0.1,8.2-0.2,12.2c-0.1,1.6,0.2,3.2,0,4.8c0,0.3-0.4,0.7-0.7,0.7c-1,0-1.9,0.5-2.8,0.1c-0.8-0.3-0.7-1.4-1.2-2.1
		c-0.9-1.2-1.4-2.7-2.3-3.8c-0.2-0.2-0.4-1.4,0.3-1.2c0.2,0.1,0.2,0.5,0.4,0.5c0.5,0.2,0.6-0.6,0.9-0.8c0.5-0.4,1.1-0.7,1.2-1.4
		c0.1-0.5-0.4-0.8-0.9-0.8c-0.4,0-1,0.7-1.2,0.2c-0.1-0.3,0.2-0.8,0.1-1.1c-0.9-1.5-1.7-3-2.4-4.5c-0.4-0.9-0.3-1.9-1-2.7
		c-0.1-0.2,0.2-0.7,0.1-1c0-0.2-0.2-0.4-0.4-0.6c-0.1-0.2-0.4-0.3-0.5-0.6c-1.2-3.4-2.3-6.8-3.2-10.2c-0.1-0.4-0.2-1-0.4-1.4
		c-1.7-3.6-2-7.6-3.3-11.2c-0.3-4-1.3-8-1.7-12l-0.5-5.4c-0.1-1,0.4-2.1,0.1-3.1c-0.2-0.7,0-1.3,0.5-2l-0.5-0.8
		c-0.8,0.3-1.4,0.9-2,1.5c-0.7,0.6-1.6,0-2.3-0.2c-2.5-0.8-5-1.6-7.6-2.2l0.2-0.6l10-0.8c3.1-0.3,6.1-0.8,9.2-0.7l11.8-1.7
		c0.2,0,0.5,0,0.7,0C78.7,3.6,78.3,4.6,78.4,5.6z M110.8,62.5C110.8,62.5,110.8,62.5,110.8,62.5c-0.3-0.2-0.7-0.5-0.9-0.8
		c-0.1-0.1-0.4-0.3-0.2-0.5C110.1,61.2,110.2,61.8,110.8,62.5z M108.6,57.5c0.3-0.1,0.6-0.5,0.9-0.5c0.1,0,0.3,0.3,0.4,0.4
		c-0.4,0.6-1.1,0.7-1.7,0.7C108.2,57.9,108.3,57.6,108.6,57.5z M105.8,58.4c0.1,0,0.1-0.1,0.2-0.1c0.5,0,1-0.4,1.5-0.2
		c0.3,0.1-0.1,0.5-0.2,0.5c-0.5,0.1-1,0.5-1.5,0.4C105.5,59,105.5,58.5,105.8,58.4z M103.7,59.2c0.3-0.1,0.6-0.2,1-0.3
		c0.3-0.1,0.1,0.6,0.1,0.6c-0.4,0.3-0.9,0.3-1.4,0.4C103.3,59.6,103.5,59.3,103.7,59.2z M102.6,59.7c0,0.2,0,0.6-0.3,0.6
		c-0.3,0.1-0.7,0.2-1,0.2c0-0.2,0.1-0.5,0.3-0.6C101.9,59.8,102.3,59.8,102.6,59.7z M100.6,61.1c-0.4-0.1-0.5,0.2-0.9,0.3
		c-0.3,0.2-0.8,0.1-1.2,0.2c0-0.3,0.2-0.5,0.4-0.6c0.4-0.1,0.9-0.3,1.3-0.4C100.8,60.3,100.5,61,100.6,61.1z M96.4,61.9
		c0.4,0,0.7-0.3,1.3-0.2c-0.1,0.1-0.1,0.4-0.3,0.4c-0.3,0.2-0.7,0.2-1.1,0.3C95.8,62.5,96.3,61.9,96.4,61.9z M93.9,63.1l0.6-0.3
		c0,0,0.9-0.5,0.6,0c-0.3,0.5-0.9,0.4-1.4,0.6C93.3,63.6,94,63,93.9,63.1z M91.5,63.8c0.2-0.3,0.9-0.6,1.1,0
		c-0.1,0.1-0.2,0.2-0.3,0.2C92.2,64.1,91.2,64.4,91.5,63.8z M90.2,64.7c-0.3,0.1-0.5,0.1-0.8,0.2l-0.1-0.3c0.4-0.3,0.8-0.3,1.3-0.3
		C90.8,64.7,90.5,64.6,90.2,64.7z M88.2,65.2c-0.2,0.3-0.6,0.3-0.9,0.4l0.1-0.3C87.6,65.4,87.9,64.9,88.2,65.2z M86,66.2
		c-0.3,0-0.6,0.4-0.9,0.2c0.1-0.1,0.1-0.2,0.2-0.2C85.4,66.1,85.8,66,86,66.2z M86.5,5.4c0.4,0.1,0.1,0.5,0,0.7
		c-0.4,0.5-0.7,1.1-1,1.6C85.2,8,85,7.5,84.9,7.4c-0.2-0.4-0.5-0.8-0.7-1.3c-0.2-0.4-0.6-0.6-0.8-1C84.4,5.2,85.5,5.2,86.5,5.4z
		 M84.3,7.8L84,8.1l-0.2-0.4L84.3,7.8z M79.7,73c0-0.8-0.1-1.5-0.1-2.3c0-0.4,0.4-0.7,0.8-0.8l0.1,3L79.7,73z M81.6,72.4
		c-0.2-0.8-0.3-1.6-0.4-2.4c0-0.2,0.1-0.4,0.3-0.6c0.1-0.2,0.6-0.2,0.6,0.2c0.1,0.9-0.2,1.8,0.1,2.7C82.3,72.6,81.6,72.6,81.6,72.4z
		 M81.5,16.9c-0.1-0.1-0.3-0.3-0.2-0.4c0.3-1.9,0.5-2.4-0.1-2.9c0.1-0.2,0.3-0.3,0.4-0.5c0.1-0.2,0.1-0.4,0.1-0.6
		C81.5,12,81,11.8,80.6,12c-0.3-0.3-0.2-0.8-0.1-1.1c0.2-1.7,0.5-3.3,0.3-5c0-0.2-0.1-0.4-0.1-0.6c0-0.2,0-0.5,0.1-0.7l3.7,5.9
		c-0.5,0.8-0.9,1.8-1.7,2.4C82.2,14,81.9,15.3,81.5,16.9z M83.7,72.2c0,0.3-0.6,0-0.6-0.3c0-0.9,0.1-1.8-0.2-2.6
		c0-0.2,0.5-0.8,0.6-0.5C83.9,69.9,83.6,71.1,83.7,72.2z M99.5,68.3c-0.5,0.1-0.6-0.9-1.1-1.1c-0.2-0.1-0.6,0.1-0.9,0.3
		c-1.3,0.9-2.8,1.3-4.3,1.6c-0.4,0.1-0.3,0.7-0.5,1c-0.1,0.2-0.4,0.4-0.7,0.4l-5,1.1C86.6,71.7,86,72,85.3,72
		c-0.2-0.9-0.2-1.7-0.5-2.6c-0.3-0.8,0.3-1.5,1.1-1.6c0.6-0.1,1.2,0.2,1.8,0.3c0.4,0,0.4-0.4,0.4-0.9c0.4,0.1,0.7-0.3,1.1-0.3
		c0.4,0,0.2,0.6,0.5,0.6c0.5,0.1,0.5-0.6,0.8-0.9c0.3-0.2,0.3,0.3,0.6,0.4c0.2-0.2,0.5-0.3,0.5-0.5c0.2-0.7,0.7-0.8,1.3-1
		c0.8-0.3,1.6-0.9,2.5-0.8c0.5,0,1,0,1.4-0.4c0.5-0.4,1.5-0.9,2.2-0.5c0.2,0.1,0.6-0.1,0.6-0.4c0-0.1,0-0.3,0.1-0.4
		c0.5-0.4,1.1-0.5,1.7-0.6c0.5,0.6,0.6,1.4,1,2.2c0.3,0.6-0.3,1.1-0.8,1.3c-0.3,0.1-0.3,0.6-0.1,0.8c0.3,0.2,0.7,0.2,1,0.3l0.1,0.5
		C101.7,68,100.5,68.1,99.5,68.3z M103.8,80.3c0,0-0.1-0.1-0.1-0.2c1.7-0.2,3.4-0.1,5,0.1C107.1,80.6,105.5,80.3,103.8,80.3z
		 M107.4,66.1c-0.2,0.1-0.5,0.2-0.7,0.1c-0.8-0.1-1.7-0.1-2.3-0.7c-0.4-0.4-0.3-1.2-0.6-1.7c-0.2-0.4,0-1-0.4-1.5
		c-0.3-0.3-0.7-0.3-1.1-0.2c0.1-0.5,0.8-0.7,1.1-0.4c0.2,0.2,0.5,0.4,0.7,0.1c0.5-0.6,1.1-1.5,2-0.8c0.1,0.1,0.2,0.2,0.3,0.3
		c0.3,0.3,0.6-0.1,0.7-0.3c0.2-0.3-0.2-0.5-0.2-0.8c0.5-0.1,0.7,0.4,1,0.6c1.3,1,2.4,2.3,3.5,3.6c-0.5,0.5-1.3,0.6-2,0.7
		C108.7,65.4,108.1,65.9,107.4,66.1z"/>
	<path fill="#FFFFFF" d="M27.9,82.1C28,82.4,28,82.2,27.9,82.1L27.9,82.1z"/>
	<path fill="#FFFFFF" d="M125.7,81.4c0-0.2-0.2-0.5-0.3-0.6c-0.4-0.3-0.9-0.1-1.3-0.1c-1.4,0-2.4,0.1-2.7,1c-1.4-0.5-3-0.6,0.2,0.1
		c-4.9-0.3-4.9,0.2-5.1,0.3c-0.1,0.1-0.4,0.1-0.6,0.1c-0.4,0-0.9,0.3-1.2,0c-0.1-0.1-0.1-0.5-0.2-0.7l-0.7-0.1l-0.2-0.6
		c-2.7,0.3-5.4,0.7-8.2,0.6l-0.3,0.5c0.9,0.3,1.9,0.2,2.8,0.1c0.5-0.1,0.9,0.1,1.1,0.5c-0.2,0-0.4,0.2-0.6,0.1
		c-0.7-0.1-1.3,0.1-1.8,0.4c-0.2,0.1-0.3,0.4-0.4,0.7c0.3,0,0.5,0.1,0.8,0.1c3.3,0,6.6-0.7,9.8-0.3c0.4,0,0.7-0.7,1.2-0.7
		c2.6,0,5.2-0.1,7.8-0.2c0.1,0,0.3-0.1,0.3-0.2c0.1-0.1,0.1-0.4,0.1-0.5l-0.8-0.2C125.6,81.7,125.7,81.6,125.7,81.4z M109.9,82.8
		c0.2-0.3,0.7,0.1,1-0.1l0,0.2C110.6,82.9,110.3,82.8,109.9,82.8z"/>
	<path fill="#FFFFFF" d="M123.5,86.4c-2.5,0.4-5,0.4-7.5,0.5c-0.5,0-0.9,0.1-1.3,0.1c-1.2-0.1-2.4,0.1-3.6,0.2c-0.3,0,0,0.7,0.2,0.7
		c4.1,0.3,8.2,0.2,12.3-0.4c0.4-0.1,0.7-0.4,0.7-0.8C124,86.6,123.7,86.3,123.5,86.4z"/>
	<path fill="#FFFFFF" d="M22.8,91.1c-0.3,0.2-0.3,0.8,0,0.7c1.4-0.4,2.8,0.2,4.7,0.9l0.4-0.4c-0.3-0.2-0.8-0.2-1-0.5
		C25.5,90.6,24,90.5,22.8,91.1z"/>
	<path fill="#FFFFFF" d="M27.9,82.1C27.9,82.1,27.9,82,27.9,82.1C27.9,82,27.9,82,27.9,82.1C27.9,82,27.9,82.1,27.9,82.1z"/>
	<path fill="#FFFFFF" d="M16.1,82.9c0.2,0,0.5,0.2,0.7,0.3c0.4,0.2,0.9-0.1,0.8-0.5c0-0.3-0.3-0.6-0.5-0.7c-0.4-0.2-1-0.1-1.4-0.2
		c-0.7-0.2-1.5,0-2.1-0.1c-1.9-0.4-3.7-0.9-5.7-0.5c-2.4-0.7-4.8-0.1-7.2,0.2l-0.1-0.8L0,80.7c0,0.5,0,1.1,0.1,1.6
		c0.1,0.3,0.5,0.8,0.7,0.8c3,0.2,6.1-0.1,9.1-0.2L16.1,82.9z"/>
	<path fill="#FFFFFF" d="M42.7,88.6c-1.6,0.3-3.1,0.2-4.6,0.2c-3.3,0.1-6.6,0.4-9.8-0.5c-0.7-0.2-1.5-0.4-2.1,0.1
		c0.1,0.2,0.2,0.4,0.4,0.5c3.9,1.2,8,1.2,12,0.7c3.1-0.4,6.2-0.1,9.3-0.5c0.3,0,0.5,0,0.8,0c-0.2-0.7-0.6-1.3-1.2-1.2
		c-1,0.1-2.1,0.1-3.1,0.1c-0.5,0-1.1-0.4-1.6,0c0,0.1,0.1,0.3,0.1,0.4C42.8,88.3,42.7,88.6,42.7,88.6z"/>
	<path fill="#FFFFFF" d="M41.6,93.9c-0.2,0-0.3,0.3-0.4,0.5c0.3,0.1,0.6,0.3,0.8,0.3c2.1-0.8,4.3-0.4,6.4-0.2c0.1,0,0.2-0.2,0.3-0.3
		C46.4,93.1,43.9,93.5,41.6,93.9z"/>
	<path fill="#FFFFFF" d="M84.2,90.8c-0.8-0.1-1.6,0.1-2.3,0.3c-0.4,0.1-0.3,0.6-0.3,0.9c0.3,0,0.5-0.1,0.8-0.1
		c0.6-0.1,1.2-0.1,1.8-0.4C84.3,91.3,84.5,90.8,84.2,90.8z"/>
	<path fill="#FFFFFF" d="M52,93.1c0.1,0.1,0.1,0.3,0.2,0.3c0.2,0.1,0.6-0.2,0.4-0.4C52.5,92.7,52.1,92.9,52,93.1z"/>
	<path fill="#FFFFFF" d="M110.3,87c-0.4-0.3-1.1-0.4-1.5-0.3c-3.8,0.7-7.8,1-11.7,0.3c-0.2,0-0.5,0.3-0.8,0.5
		c-0.9,0.5-2.1,0.6-3.1,0.5c0.7-0.6,1.8-0.2,2.3-1.1c-0.2-0.1-0.4-0.4-0.6-0.4c-1.9,0.5-3.8,1.5-5.9,1.3c-0.2,0-0.4,0.4-0.7,0.4
		l-3.4,0c-3.2,0-5.9-0.7-8.1,0.4c-2.8,0.1-5.6-0.2-8.4-0.1c-4.3,0-8.6,0.4-12.8,0.3c-0.5,0-1.2-0.2-1.8,0c-2.6,0.5-5.1,1.8-7.8,1.8
		l-8.3,0.1c-3.5,0-7-0.8-10.6-0.2c-0.2,0-0.4,0.4-0.5,0.6c0.2,0.1,0.5,0.3,0.7,0.3c1.1-0.2,2.3-0.2,3.5-0.2c2.3,0.1,4.3,0,5.9,0.6
		c0.5,0.2,1.2,0,1.7,0.1c0.2,0,0.2,0.4,0.4,0.5c0.2,0.1,0.4,0.2,0.6,0.2c1.4-0.1,2.7-0.1,4.1,0c0.2,0,0.3,0.6,0.5,0.6
		c1.6-0.1,3.1-0.3,4.6-0.2c0.1,0,0.3,0,0.4,0c-0.3,0.1-0.7,0.5-0.3,0.6c0.3,0.1,0.7,0,1,0l0.3-0.6c0.2,0.1,0.3,0.3,0.5,0.4
		c0.2,0.1,0.4,0.2,0.6,0.2c0.2,0,0.7-0.4,0.3-0.6c-0.2-0.1-0.5-0.1-0.8-0.1c0.1-0.3,0.3-0.8,0-1C49.8,92.1,49,92,48.2,92
		c-0.1,0-0.3-0.2-0.4-0.2c0.7-0.1,1.4-0.4,2.1-0.4c2.2,0,4.4-0.8,6.5-1.3c2.6-0.5,5.3-0.6,8-0.6c-1,0.6-2,1.1-3.1,1.5
		c-1.8,0.7-3.7,0.9-5.5,1.5c-0.1,0-0.2,0.3-0.2,0.5c3.7-0.4,7.1-1.8,10.4-3.1c0.2-0.1,0.7,0.4,0.4,0.5l-4.4,1.6
		c-0.4,0.1-1.1,0.1-1.1,0.6c0,0.7,0.7,0.7,1,0.4c0.6-0.5,1.2-0.7,1.9-1c2.7-1.1,5-2,7.1-1.3c-0.1,0.1-0.1,0.2-0.2,0.2
		c-1.5,0.5-3,0.7-4.5,1c-0.3,0.1-0.5,0.3-0.6,0.5c-0.3,0.4-0.2-0.6-0.7-0.3c-0.6,0.3-1.3,0.3-1.9,0.4c-0.4,0.1-0.2,0.4,0,0.6
		c-5.4,0.7-5.5,0.9-5.7,1l0,0.3c0.4,0,0.8,0.2,1.2,0.1c2.9-0.4,5.9-0.8,8.7-1.8c1.2,0.1,2.4-0.5,3.5-0.9c2-0.7,4.2-1.2,6.4-0.8
		c1,0.2,2-0.5,3.1-0.2c0.2,0.1,0.6-0.5,0.3-0.7c-0.4-0.2-0.8,0-1.2,0c-0.7,0-1.4-0.2-2.1,0c0.2-0.1-0.9,0.1-0.5-0.1
		c2.2-0.9,4.7-0.9,7-0.9c1.9,0,3.8,0.3,5.7-0.3c2.7,0.2,5.6,0.2,8.2-0.8c2.6,0.5,5.2,0.3,7.8,0.3c1.6-0.5,3.4-0.5,5-0.7
		C110.4,87.6,110.6,87.2,110.3,87z M46,91.5c-0.1,0-0.3,0-0.4-0.1c0.1-0.1,0.3-0.2,0.4-0.2c0.8,0,1.6-0.4,2.4-0.1
		C47.6,91.2,46.8,91.4,46,91.5z M54,90l-2.7,0.5c0-0.1,0-0.1,0.1-0.2c0.8-0.3,1.7-0.5,2.6-0.6L54,90z M62.8,93.1
		C62.8,93.1,62.8,93.2,62.8,93.1C61.1,93.4,59.4,93.8,62.8,93.1z M63.6,92.9c0-0.4,0.4-0.2,0.5-0.1C64.1,93,63.7,92.8,63.6,92.9z
		 M74.3,89.8c-0.9,0.4-1.9,0.1-2.9,0.2c-0.1,0-0.3-0.2-0.5-0.3c1.1-0.4,2.2-0.1,3.3-0.1L74.3,89.8z"/>
	<path fill="#FFFFFF" d="M27.7,81.9c-0.6-0.3-1.2-0.2-1.8-0.4c-0.7-0.2-1.2,0.5-1.8,0.5c-2-0.2-4,0.2-5.8,0.8
		c-0.2,0.1,0.3,0.7,0.6,0.7c1.5,0.2,2.9-0.4,4.4-0.4c1.5,0,2.9-0.4,4.6-1C27.9,82,27.8,81.9,27.7,81.9z"/>
	<path fill="#FFFFFF" d="M17.6,74.1C17.6,74.1,17.6,74.1,17.6,74.1c0.1,0,0.3,0.1,0.4,0.1C17.8,74.2,17.7,74.2,17.6,74.1z"/>
	<path fill="#FFFFFF" d="M49,72.2c0-0.1,0-0.6-0.3-0.3C48.7,72,48.8,72.2,49,72.2z"/>
	<path fill="#FFFFFF" d="M18,74.2C20.6,74.9,22.9,75.4,18,74.2L18,74.2z"/>
	<polygon fill="#FFFFFF" points="17.4,74.1 17.4,74.1 17.4,74.1 	"/>
</g>
</svg>
