<?xml version="1.0" encoding="UTF-8"?>
<svg width="82px" height="7px" viewBox="0 0 82 7" version="1.1" xmlns="http://www.w3.org/2000/svg" xmlns:xlink="http://www.w3.org/1999/xlink">
    <!-- Generator: Sketch 3.7 (28169) - http://www.bohemiancoding.com/sketch -->
    <title>Wave</title>
    <desc>Created with Sketch.</desc>
    <defs></defs>
    <g id="Page-1" stroke="none" stroke-width="1" fill="none" fill-rule="evenodd">
        <g id="Desktop" transform="translate(-599.000000, -2339.000000)" stroke="#1F2844" stroke-width="2">
            <g id="Who-is-allowed" transform="translate(-123.000000, 1813.000000)">
                <g id="Wave" transform="translate(723.000000, 527.000000)">
                    <path d="M0,0.00137775492 C4.16791945,-0.0959911752 6.08270353,5.00000006 10,5 C13.5096769,4.99999994 15.7022965,-0.0959911687 20,0.00137775492" id="Path-114"></path>
                    <path d="M20,0.00137775492 C24.1679195,-0.0959911752 26.0827035,5.00000006 30,5 C33.5096769,4.99999994 35.7022965,-0.0959911687 40,0.00137775492" id="Path-114"></path>
                    <path d="M40,0.00137775492 C44.1679195,-0.0959911752 46.0827035,5.00000006 50,5 C53.5096769,4.99999994 55.7022965,-0.0959911687 60,0.00137775492" id="Path-114"></path>
                    <path d="M60,0.00137775492 C64.1679195,-0.0959911752 66.0827035,5.00000006 70,5 C73.5096769,4.99999994 75.7022965,-0.0959911687 80,0.00137775492" id="Path-114"></path>
                </g>
            </g>
        </g>
    </g>
</svg>